<svg width="32" height="32" viewBox="0 0 32 32" fill="none" xmlns="http://www.w3.org/2000/svg">
<g clip-path="url(#clip0_3_6361)">
<path d="M16 32C24.8366 32 32 24.8366 32 16C32 7.16344 24.8366 0 16 0C7.16344 0 0 7.16344 0 16C0 24.8366 7.16344 32 16 32Z" fill="white"/>
<path d="M0 16.0001C0 7.1635 7.1635 0 16 0C24.8365 0 32 7.1635 32 16.0001" fill="#D80027"/>
<path d="M9.73913 8.34777C9.73913 6.01665 11.3774 4.06927 13.5652 3.59146C13.2289 3.51808 12.8801 3.47827 12.5217 3.47827C9.83226 3.47827 7.65213 5.6584 7.65213 8.34783C7.65213 11.0373 9.83226 13.2174 12.5217 13.2174C12.88 13.2174 13.2289 13.1776 13.5652 13.1041C11.3774 12.6263 9.73913 10.679 9.73913 8.34777Z" fill="#F0F0F0"/>
<path d="M16 3.82605L16.3454 4.88886H17.4629L16.5588 5.5458L16.9041 6.60861L16 5.9518L15.0959 6.60861L15.4412 5.5458L14.5371 4.88886H15.6546L16 3.82605Z" fill="#F0F0F0"/>
<path d="M13.2891 5.91296L13.6344 6.97584H14.7519L13.8478 7.63271L14.1932 8.69553L13.2891 8.03871L12.3848 8.69553L12.7303 7.63271L11.8261 6.97584H12.9436L13.2891 5.91296Z" fill="#F0F0F0"/>
<path d="M18.7107 5.91296L19.0561 6.97584H20.1736L19.2695 7.63271L19.6149 8.69553L18.7107 8.03871L17.8066 8.69553L18.152 7.63271L17.2478 6.97584H18.3653L18.7107 5.91296Z" fill="#F0F0F0"/>
<path d="M17.6676 9.04346L18.0129 10.1063H19.1304L18.2263 10.7632L18.5717 11.826L17.6676 11.1692L16.7634 11.826L17.1088 10.7632L16.2047 10.1063H17.3221L17.6676 9.04346Z" fill="#F0F0F0"/>
<path d="M14.3328 9.04346L14.6782 10.1063H15.7958L14.8916 10.7632L15.237 11.826L14.3328 11.1692L13.4287 11.826L13.774 10.7632L12.8699 10.1063H13.9875L14.3328 9.04346Z" fill="#F0F0F0"/>
</g>
<defs>
<clipPath id="clip0_3_6361">
<rect width="32" height="32" fill="white"/>
</clipPath>
</defs>
</svg>
