<svg width="32" height="32" viewBox="0 0 32 32" fill="none" xmlns="http://www.w3.org/2000/svg">
<g clip-path="url(#clip0_3_6330)">
<path d="M16 32C24.8366 32 32 24.8366 32 16C32 7.16344 24.8366 0 16 0C7.16344 0 0 7.16344 0 16C0 24.8366 7.16344 32 16 32Z" fill="#F0F0F0"/>
<path d="M3.3075 6.25879C2.05069 7.89398 1.103 9.77866 0.551186 11.8261H8.87481L3.3075 6.25879Z" fill="#0052B4"/>
<path d="M31.4488 11.8262C30.897 9.77879 29.9492 7.8941 28.6925 6.25891L23.1253 11.8262H31.4488Z" fill="#0052B4"/>
<path d="M0.551186 20.174C1.10306 22.2213 2.05075 24.106 3.3075 25.7411L8.87462 20.174H0.551186Z" fill="#0052B4"/>
<path d="M25.7411 3.30752C24.1059 2.05071 22.2213 1.10302 20.1739 0.551147V8.87471L25.7411 3.30752Z" fill="#0052B4"/>
<path d="M6.25887 28.6924C7.89406 29.9492 9.77875 30.8969 11.8261 31.4487V23.1252L6.25887 28.6924Z" fill="#0052B4"/>
<path d="M11.8261 0.551147C9.77869 1.10302 7.894 2.05071 6.25887 3.30746L11.8261 8.87465V0.551147Z" fill="#0052B4"/>
<path d="M20.1739 31.4487C22.2213 30.8969 24.106 29.9492 25.7411 28.6924L20.1739 23.1252V31.4487Z" fill="#0052B4"/>
<path d="M23.1253 20.174L28.6925 25.7412C29.9492 24.1061 30.897 22.2213 31.4488 20.174H23.1253Z" fill="#0052B4"/>
<path d="M31.8646 13.9131H18.0871H18.087V0.135438C17.4038 0.0465 16.7073 0 16 0C15.2926 0 14.5962 0.0465 13.9131 0.135438V13.9129V13.913H0.135438C0.0465 14.5962 0 15.2927 0 16C0 16.7074 0.0465 17.4038 0.135438 18.0869H13.9129H13.913V31.8646C14.5962 31.9535 15.2926 32 16 32C16.7073 32 17.4038 31.9536 18.0869 31.8646V18.0871V18.087H31.8646C31.9535 17.4038 32 16.7074 32 16C32 15.2927 31.9535 14.5962 31.8646 13.9131Z" fill="#D80027"/>
<path d="M20.1739 20.174L27.3137 27.3138C27.6421 26.9855 27.9553 26.6423 28.2542 26.2866L22.1416 20.174H20.1739V20.174Z" fill="#D80027"/>
<path d="M11.8261 20.174H11.8259L4.68625 27.3136C5.0145 27.642 5.35769 27.9553 5.71344 28.2541L11.8261 22.1414V20.174Z" fill="#D80027"/>
<path d="M11.8261 11.8262V11.8261L4.68631 4.68628C4.35794 5.01453 4.04469 5.35772 3.74581 5.71347L9.8585 11.8262H11.8261V11.8262Z" fill="#D80027"/>
<path d="M20.1739 11.8262L27.3137 4.68629C26.9855 4.35791 26.6423 4.04466 26.2866 3.74585L20.1739 9.85854V11.8262Z" fill="#D80027"/>
</g>
<defs>
<clipPath id="clip0_3_6330">
<rect width="32" height="32" fill="white"/>
</clipPath>
</defs>
</svg>
